<?xml version="1.0" encoding="UTF-8"?>
<svg width="321px" height="159px" viewBox="0 0 321 159" version="1.1" xmlns="http://www.w3.org/2000/svg" xmlns:xlink="http://www.w3.org/1999/xlink">
    <defs></defs>
    <g id="FAQ" stroke="none" stroke-width="1" fill="none" fill-rule="evenodd">
        <g id="For-Societies-Copy" transform="translate(-558.000000, -121.000000)" fill-rule="nonzero">
            <g id="Group" transform="translate(558.000000, 121.000000)">
                <g id="discuss-issue" opacity="0.745867301" transform="translate(84.000000, 16.000000)" fill="#F76248">
                    <path d="M120.120138,33.7112947 C120.120138,38.4672647 116.657488,41.3596833 114.129052,43.4822895 C113.171482,44.2862677 111.389121,45.753236 111.393879,46.3011867 C111.411179,48.4506067 109.682882,50.1671153 107.53289,50.1671153 C107.522077,50.1671153 107.511264,50.1671153 107.500452,50.1671153 C105.365598,50.1671153 103.626055,48.5033691 103.608755,46.3647611 C103.574587,42.1493897 106.651008,39.6250106 109.123218,37.5495445 C111.063011,35.9208291 112.335014,34.7747602 112.335014,33.7259989 C112.335014,31.6029602 110.607581,29.8756396 108.484405,29.8756396 C106.360364,29.8756396 104.632499,31.6029602 104.632499,33.7259989 C104.632499,35.8758513 102.889928,37.6183087 100.739937,37.6183087 C98.5899449,37.6183087 96.8473747,35.8758513 96.8473747,33.7259989 C96.8473747,27.3106075 102.0673,22.0910202 108.48354,22.0910202 C114.900212,22.0905877 120.120138,27.2954708 120.120138,33.7112947 Z M107.608146,53.7601496 C105.458154,53.7601496 103.801653,55.502607 103.801653,57.6524594 L103.801653,57.6823004 C103.801653,59.8321528 105.458587,61.5599059 107.608146,61.5599059 C109.757705,61.5599059 111.500708,59.8023118 111.500708,57.6524594 C111.500708,55.502607 109.758138,53.7601496 107.608146,53.7601496 Z M29.1475041,80.8735468 C26.9975124,80.8735468 25.2549421,82.6160041 25.2549421,84.7658566 C25.2549421,86.915709 26.9975124,88.6581663 29.1475041,88.6581663 L29.4718843,88.6581663 C31.621876,88.6581663 33.3644463,86.915709 33.3644463,84.7658566 C33.3644463,82.6160041 31.621876,80.8735468 29.4718843,80.8735468 L29.1475041,80.8735468 Z M42.6758871,80.8735468 C40.5258953,80.8735468 38.7833251,82.6160041 38.7833251,84.7658566 C38.7833251,86.915709 40.5258953,88.6581663 42.6758871,88.6581663 L42.9998347,88.6581663 C45.1498264,88.6581663 46.8923967,86.915709 46.8923967,84.7658566 C46.8923967,82.6160041 45.1498264,80.8735468 42.9998347,80.8735468 L42.6758871,80.8735468 Z M157,18.7051432 L157,62.5156842 C157,72.8886896 148.682028,81.3060257 138.30835,81.3060257 L87.8274435,81.3060257 C86.8404628,81.3060257 86.0277824,81.3004034 85.3478815,81.2861316 C84.6355427,81.2714274 83.8336749,81.2658051 83.5209725,81.3004034 C83.1952948,81.5166429 82.3968871,82.2479646 81.6274573,82.9567975 C81.3225399,83.2374763 80.9773994,83.5462662 80.605011,83.8861945 L66.3227686,96.9029433 C65.1835455,97.94219 63.4980661,98.2111918 62.0872287,97.5892872 C60.6763912,96.9669501 59.6859504,95.5700434 59.6859504,94.0282563 L59.6859504,52.7624209 L18.9092011,52.7624209 C12.8272893,52.7624209 7.78512397,57.7458748 7.78512397,63.8265276 L7.78512397,107.637069 C7.78512397,113.718154 12.8277218,118.499208 18.9092011,118.499208 L75.296854,118.499208 C76.267832,118.499208 77.1760964,118.945093 77.8931928,119.599866 L89.5289256,130.327072 L89.5289256,93.3332628 C89.5289256,91.1834104 91.2714959,89.440953 93.4214876,89.440953 C95.5714793,89.440953 97.3140496,91.1834104 97.3140496,93.3332628 L97.3140496,139.149208 C97.3140496,140.690995 96.4317355,142.067143 95.0204656,142.68948 C94.51573,142.912207 94.008832,143 93.478146,143 C92.5249008,143 91.5846309,142.608607 90.8532617,141.940859 L73.7878375,126.283395 L18.9092011,126.283395 C8.53509091,126.283395 0,118.010074 0,107.636636 L0,63.8265276 C0,53.4535221 8.53509091,44.9778014 18.9092011,44.9778014 L59.6859504,44.9778014 L59.6859504,18.7051432 C59.6859504,8.33170524 68.2863499,0 78.6604601,0 L138.308782,0 C148.682028,0 157,8.33170524 157,18.7051432 Z M149.214876,18.7051432 C149.214876,12.6240579 144.389397,7.78461948 138.30835,7.78461948 L78.6604601,7.78461948 C72.5789807,7.78461948 67.4710744,12.6240579 67.4710744,18.7051432 L67.4710744,48.9064394 L67.4710744,85.20612 L75.2972865,78.1337932 C75.6597273,77.8029469 76.0658512,77.5002117 76.3621185,77.2268851 C79.9359229,73.933991 80.8502424,73.4076643 85.5118017,73.5036746 C86.1475868,73.5170814 86.9049063,73.5218387 87.8274435,73.5218387 L138.30835,73.5218387 C144.389397,73.5218387 149.214876,68.5967694 149.214876,62.5161166 L149.214876,18.7051432 Z" id="Shape"></path>
                </g>
                <g id="discuss-issue-copy" opacity="0.118772645" fill="#2C2928">
                    <path d="M57.3822314,16.0305457 C57.3822314,18.2921259 55.7280992,19.6675417 54.5202479,20.6768929 C54.0628099,21.0592042 53.2113636,21.7567836 53.2136364,22.0173475 C53.2219008,23.0394493 52.396281,23.8556912 51.3692149,23.8556912 C51.3640496,23.8556912 51.3588843,23.8556912 51.353719,23.8556912 C50.3338843,23.8556912 49.5028926,23.0645392 49.4946281,22.0475787 C49.4783058,20.0430664 50.9479339,18.8426624 52.1289256,17.8557275 C53.0555785,17.0812334 53.6632231,16.5362496 53.6632231,16.037538 C53.6632231,15.0279811 52.8380165,14.2065979 51.8237603,14.2065979 C50.8090909,14.2065979 49.9836777,15.0279811 49.9836777,16.037538 C49.9836777,17.0598454 49.1512397,17.8884265 48.1241736,17.8884265 C47.0971074,17.8884265 46.2646694,17.0598454 46.2646694,16.037538 C46.2646694,12.9868623 48.7582645,10.5048208 51.8233471,10.5048208 C54.8886364,10.5046151 57.3822314,12.9796644 57.3822314,16.0305457 Z M51.4051653,25.564267 C50.3780992,25.564267 49.5867769,26.3928481 49.5867769,27.4151555 L49.5867769,27.4293457 C49.5867769,28.4516531 50.3783058,29.273242 51.4051653,29.273242 C52.4320248,29.273242 53.2646694,28.437463 53.2646694,27.4151555 C53.2646694,26.3928481 52.4322314,25.564267 51.4051653,25.564267 Z M13.9239669,38.4573509 C12.8969008,38.4573509 12.0644628,39.285932 12.0644628,40.3082395 C12.0644628,41.3305469 12.8969008,42.159128 13.9239669,42.159128 L14.0789256,42.159128 C15.1059917,42.159128 15.9384298,41.3305469 15.9384298,40.3082395 C15.9384298,39.285932 15.1059917,38.4573509 14.0789256,38.4573509 L13.9239669,38.4573509 Z M20.3865702,38.4573509 C19.3595041,38.4573509 18.5270661,39.285932 18.5270661,40.3082395 C18.5270661,41.3305469 19.3595041,42.159128 20.3865702,42.159128 L20.5413223,42.159128 C21.5683884,42.159128 22.4008264,41.3305469 22.4008264,40.3082395 C22.4008264,39.285932 21.5683884,38.4573509 20.5413223,38.4573509 L20.3865702,38.4573509 Z M75,8.8947534 L75,29.7277379 C75,34.6603559 71.0264463,38.6630052 66.0708678,38.6630052 L41.9557851,38.6630052 C41.4842975,38.6630052 41.0960744,38.6603317 40.771281,38.6535451 C40.4309917,38.6465529 40.0479339,38.6438794 39.8985537,38.6603317 C39.7429752,38.7631588 39.3615702,39.1109202 38.9940083,39.4479876 C38.8483471,39.5814572 38.6834711,39.7282944 38.5055785,39.8899387 L31.6828512,46.0797213 C31.1386364,46.5739085 30.3334711,46.7018255 29.6595041,46.4060946 C28.9855372,46.1101581 28.5123967,45.4458948 28.5123967,44.7127373 L28.5123967,25.0898225 L9.03305785,25.0898225 C6.12768595,25.0898225 3.71900826,27.4595768 3.71900826,30.3510761 L3.71900826,51.1840606 C3.71900826,54.0757655 6.12789256,56.3492736 9.03305785,56.3492736 L35.9698347,56.3492736 C36.4336777,56.3492736 36.867562,56.5613031 37.210124,56.8726637 L42.768595,61.9737125 L42.768595,44.3822508 C42.768595,43.3599434 43.6010331,42.5313623 44.6280992,42.5313623 C45.6551653,42.5313623 46.4876033,43.3599434 46.4876033,44.3822508 L46.4876033,66.1688543 C46.4876033,66.9020118 46.0661157,67.5564037 45.3919421,67.8523402 C45.1508264,67.9582522 44.9086777,68 44.6551653,68 C44.1997934,68 43.7506198,67.8138829 43.4012397,67.4963527 L35.2489669,60.050845 L9.03305785,60.050845 C4.07727273,60.050845 0,56.1166786 0,51.1838549 L0,30.3510761 C0,25.4184581 4.07727273,21.3880454 9.03305785,21.3880454 L28.5123967,21.3880454 L28.5123967,8.8947534 C28.5123967,3.96192976 32.6208678,0 37.5766529,0 L66.0710744,0 C71.0264463,0 75,3.96192976 75,8.8947534 Z M71.2809917,8.8947534 C71.2809917,6.00304852 68.9758264,3.70177709 66.0708678,3.70177709 L37.5766529,3.70177709 C34.6714876,3.70177709 32.231405,6.00304852 32.231405,8.8947534 L32.231405,23.2562089 L32.231405,40.5175955 L35.9700413,37.154531 C36.1431818,36.9972055 36.3371901,36.8532475 36.478719,36.723274 C38.1859504,35.1574223 38.6227273,34.907141 40.8495868,34.9527963 C41.1533058,34.9591716 41.5150826,34.9614338 41.9557851,34.9614338 L66.0708678,34.9614338 C68.9758264,34.9614338 71.2809917,32.6194428 71.2809917,29.7279436 L71.2809917,8.8947534 Z" id="Shape"></path>
                </g>
                <g id="discuss-issue-copy-2" opacity="0.12109375" transform="translate(268.000000, 9.000000)" fill="#2C2928">
                    <path d="M40.5501102,11.3156793 C40.5501102,12.9120888 39.3811901,13.8829706 38.5276419,14.5954538 C38.2043857,14.8653206 37.602697,15.3577296 37.604303,15.5416571 C37.6101433,16.2631407 37.0267052,16.8393114 36.3009118,16.8393114 C36.2972617,16.8393114 36.2936116,16.8393114 36.2899614,16.8393114 C35.5692782,16.8393114 34.9820441,16.2808512 34.9762039,15.5629967 C34.9646694,14.1480469 36.0032066,13.3007029 36.8377741,12.6040429 C37.4926088,12.0573413 37.922011,11.6726468 37.922011,11.320615 C37.922011,10.6079866 37.338865,10.0281867 36.622124,10.0281867 C35.9050909,10.0281867 35.3217989,10.6079866 35.3217989,11.320615 C35.3217989,12.0422438 34.7335427,12.6271246 34.0077493,12.6271246 C33.2819559,12.6271246 32.6936997,12.0422438 32.6936997,11.320615 C32.6936997,9.16719693 34.4558402,7.41516761 36.621832,7.41516761 C38.7879697,7.41502244 40.5501102,9.16211606 40.5501102,11.3156793 Z M36.3263168,18.0453649 C35.6005234,18.0453649 35.0413223,18.6302457 35.0413223,19.3518745 L35.0413223,19.3618911 C35.0413223,20.0835198 35.6006694,20.6634649 36.3263168,20.6634649 C37.0519642,20.6634649 37.6403664,20.0735033 37.6403664,19.3518745 C37.6403664,18.6302457 37.0521102,18.0453649 36.3263168,18.0453649 Z M9.83960331,27.1463654 C9.11380992,27.1463654 8.52555372,27.7312461 8.52555372,28.4528749 C8.52555372,29.1745037 9.11380992,29.7593845 9.83960331,29.7593845 L9.94910744,29.7593845 C10.6749008,29.7593845 11.263157,29.1745037 11.263157,28.4528749 C11.263157,27.7312461 10.6749008,27.1463654 9.94910744,27.1463654 L9.83960331,27.1463654 Z M14.4065096,27.1463654 C13.6807163,27.1463654 13.0924601,27.7312461 13.0924601,28.4528749 C13.0924601,29.1745037 13.6807163,29.7593845 14.4065096,29.7593845 L14.5158678,29.7593845 C15.2416612,29.7593845 15.8299174,29.1745037 15.8299174,28.4528749 C15.8299174,27.7312461 15.2416612,27.1463654 14.5158678,27.1463654 L14.4065096,27.1463654 Z M53,6.27864946 L53,20.9842856 C53,24.4661336 50.192022,27.2915331 46.6900799,27.2915331 L29.6487548,27.2915331 C29.3155702,27.2915331 29.0412259,27.2896459 28.8117052,27.2848554 C28.5712342,27.2799197 28.3005399,27.2780325 28.194978,27.2896459 C28.0850358,27.3622298 27.8155096,27.6077084 27.5557658,27.8456383 C27.452832,27.9398522 27.3363196,28.0435019 27.2106088,28.1576038 L22.3892149,32.5268621 C22.0046364,32.8757001 21.4356529,32.9659945 20.9593829,32.7572433 C20.4831129,32.5483469 20.1487603,32.0794551 20.1487603,31.5619322 L20.1487603,17.710463 L6.38336088,17.710463 C4.3302314,17.710463 2.62809917,19.3832307 2.62809917,21.424289 L2.62809917,36.1299251 C2.62809917,38.1711286 4.33037741,39.7759578 6.38336088,39.7759578 L25.4186832,39.7759578 C25.7464656,39.7759578 26.0530771,39.9256257 26.2951543,40.1454097 L30.2231405,43.74615 L30.2231405,31.3286476 C30.2231405,30.6070189 30.8113967,30.0221381 31.5371901,30.0221381 C32.2629835,30.0221381 32.8512397,30.6070189 32.8512397,31.3286476 L32.8512397,46.7074265 C32.8512397,47.2249495 32.5533884,47.6868732 32.0769725,47.8957696 C31.906584,47.970531 31.7354656,48 31.5563168,48 C31.2345207,48 30.9171047,47.8686232 30.6702094,47.6444842 L24.90927,42.3888318 L6.38336088,42.3888318 C2.88127273,42.3888318 0,39.6117731 0,36.1297799 L0,21.424289 C0,17.942441 2.88127273,15.0974438 6.38336088,15.0974438 L20.1487603,15.0974438 L20.1487603,6.27864946 C20.1487603,2.7966563 23.0520799,0 26.554168,0 L46.6902259,0 C50.192022,0 53,2.7966563 53,6.27864946 Z M50.3719008,6.27864946 C50.3719008,4.23744602 48.7429174,2.61301913 46.6900799,2.61301913 L26.554168,2.61301913 C24.5011846,2.61301913 22.7768595,4.23744602 22.7768595,6.27864946 L22.7768595,16.4161475 L22.7768595,28.6006557 L25.4188292,26.2267278 C25.5411818,26.1156745 25.678281,26.0140571 25.7782948,25.9223111 C26.9847383,24.817004 27.2933939,24.6403349 28.8670413,24.6725621 C29.0816694,24.6770623 29.3373251,24.6786591 29.6487548,24.6786591 L46.6900799,24.6786591 C48.7429174,24.6786591 50.3719008,23.025489 50.3719008,20.9844308 L50.3719008,6.27864946 Z" id="Shape"></path>
                </g>
                <g id="discuss-issue-copy-3" opacity="0.12109375" transform="translate(242.000000, 113.000000)" fill="#2C2928">
                    <path d="M25.2481818,7.07229958 C25.2481818,8.07005553 24.5203636,8.67685663 23.9889091,9.12215864 C23.7876364,9.2908254 23.413,9.59858099 23.414,9.71353568 C23.4176364,10.1644629 23.0543636,10.5245696 22.6024545,10.5245696 C22.6001818,10.5245696 22.5979091,10.5245696 22.5956364,10.5245696 C22.1469091,10.5245696 21.7812727,10.175532 21.7776364,9.72687297 C21.7704545,8.84252931 22.4170909,8.31293928 22.9367273,7.87752683 C23.3444545,7.53583828 23.6118182,7.29540423 23.6118182,7.07538439 C23.6118182,6.62999165 23.2487273,6.26761671 22.8024545,6.26761671 C22.356,6.26761671 21.9928182,6.62999165 21.9928182,7.07538439 C21.9928182,7.52640238 21.6265455,7.89195287 21.1746364,7.89195287 C20.7227273,7.89195287 20.3564545,7.52640238 20.3564545,7.07538439 C20.3564545,5.72949808 21.4536364,4.63447976 22.8022727,4.63447976 C24.151,4.63438903 25.2481818,5.72632254 25.2481818,7.07229958 Z M22.6182727,11.2783531 C22.1663636,11.2783531 21.8181818,11.6439036 21.8181818,12.0949215 L21.8181818,12.1011819 C21.8181818,12.5521999 22.1664545,12.9146656 22.6182727,12.9146656 C23.0700909,12.9146656 23.4364545,12.5459395 23.4364545,12.0949215 C23.4364545,11.6439036 23.0701818,11.2783531 22.6182727,11.2783531 Z M6.12654545,16.9664784 C5.67463636,16.9664784 5.30836364,17.3320288 5.30836364,17.7830468 C5.30836364,18.2340648 5.67463636,18.5996153 6.12654545,18.5996153 L6.19472727,18.5996153 C6.64663636,18.5996153 7.01290909,18.2340648 7.01290909,17.7830468 C7.01290909,17.3320288 6.64663636,16.9664784 6.19472727,16.9664784 L6.12654545,16.9664784 Z M8.97009091,16.9664784 C8.51818182,16.9664784 8.15190909,17.3320288 8.15190909,17.7830468 C8.15190909,18.2340648 8.51818182,18.5996153 8.97009091,18.5996153 L9.03818182,18.5996153 C9.49009091,18.5996153 9.85636364,18.2340648 9.85636364,17.7830468 C9.85636364,17.3320288 9.49009091,16.9664784 9.03818182,16.9664784 L8.97009091,16.9664784 Z M33,3.92415591 L33,13.1151785 C33,15.2913335 31.2516364,17.0572082 29.0711818,17.0572082 L18.4605455,17.0572082 C18.2530909,17.0572082 18.0822727,17.0560287 17.9393636,17.0530346 C17.7896364,17.0499498 17.6210909,17.0487703 17.5553636,17.0560287 C17.4869091,17.1013936 17.3190909,17.2548178 17.1573636,17.4035239 C17.0932727,17.4624076 17.0207273,17.5271887 16.9424545,17.5985024 L13.9404545,20.3292888 C13.701,20.5473126 13.3467273,20.6037465 13.0501818,20.473277 C12.7536364,20.3427168 12.5454545,20.0496595 12.5454545,19.7262076 L12.5454545,11.0690394 L3.97454545,11.0690394 C2.69618182,11.0690394 1.63636364,12.1145192 1.63636364,13.3901806 L1.63636364,22.5812032 C1.63636364,23.8569553 2.69627273,24.8599736 3.97454545,24.8599736 L15.8267273,24.8599736 C16.0308182,24.8599736 16.2217273,24.9535161 16.3724545,25.090881 L18.8181818,27.3413438 L18.8181818,19.5804048 C18.8181818,19.1293868 19.1844545,18.7638363 19.6363636,18.7638363 C20.0882727,18.7638363 20.4545455,19.1293868 20.4545455,19.5804048 L20.4545455,29.1921416 C20.4545455,29.5155934 20.2690909,29.8042958 19.9724545,29.934856 C19.8663636,29.9815818 19.7598182,30 19.6482727,30 C19.4479091,30 19.2502727,29.9178895 19.0965455,29.7778026 L15.5095455,26.4930199 L3.97454545,26.4930199 C1.794,26.4930199 0,24.7573582 0,22.5811125 L0,13.3901806 C0,11.2140256 1.794,9.4359024 3.97454545,9.4359024 L12.5454545,9.4359024 L12.5454545,3.92415591 C12.5454545,1.74791019 14.3531818,0 16.5337273,0 L29.0712727,0 C31.2516364,0 33,1.74791019 33,3.92415591 Z M31.3636364,3.92415591 C31.3636364,2.64840376 30.3493636,1.63313695 29.0711818,1.63313695 L16.5337273,1.63313695 C15.2554545,1.63313695 14.1818182,2.64840376 14.1818182,3.92415591 L14.1818182,10.2600922 L14.1818182,17.8754098 L15.8268182,16.3917049 C15.903,16.3222966 15.9883636,16.2587857 16.0506364,16.2014444 C16.8018182,15.5106275 16.994,15.4002093 17.9738182,15.4203513 C18.1074545,15.4231639 18.2666364,15.424162 18.4605455,15.424162 L29.0711818,15.424162 C30.3493636,15.424162 31.3636364,14.3909306 31.3636364,13.1152692 L31.3636364,3.92415591 Z" id="Shape"></path>
                </g>
            </g>
        </g>
    </g>
</svg>